<mxfile host="app.diagrams.net" modified="2023-07-29T13:30:24.871Z" agent="Mozilla/5.0 (Windows NT 10.0; Win64; x64) AppleWebKit/537.36 (KHTML, like Gecko) Chrome/115.0.0.0 Safari/537.36" etag="GtfiuQTsH1DJV7J9DmNb" version="21.6.6" type="device">
  <diagram name="Page-1" id="CxLCOBnHjzHq9psb6Yh8">
    <mxGraphModel dx="1450" dy="485" grid="0" gridSize="10" guides="1" tooltips="1" connect="1" arrows="1" fold="1" page="0" pageScale="1" pageWidth="850" pageHeight="1100" math="0" shadow="0">
      <root>
        <mxCell id="0" />
        <mxCell id="1" parent="0" />
        <mxCell id="VB7Ufas00Dgr7_cL7uJZ-1" value="Sender" style="shape=umlActor;verticalLabelPosition=bottom;verticalAlign=top;html=1;outlineConnect=0;" parent="1" vertex="1">
          <mxGeometry x="60" y="70" width="30" height="60" as="geometry" />
        </mxCell>
        <mxCell id="VB7Ufas00Dgr7_cL7uJZ-2" value="Sender" style="shape=umlActor;verticalLabelPosition=bottom;verticalAlign=top;html=1;outlineConnect=0;" parent="1" vertex="1">
          <mxGeometry x="60" y="280" width="30" height="60" as="geometry" />
        </mxCell>
        <mxCell id="VB7Ufas00Dgr7_cL7uJZ-3" value="Sender" style="shape=umlActor;verticalLabelPosition=bottom;verticalAlign=top;html=1;outlineConnect=0;" parent="1" vertex="1">
          <mxGeometry x="300" y="30" width="30" height="60" as="geometry" />
        </mxCell>
        <mxCell id="VB7Ufas00Dgr7_cL7uJZ-4" value="Receiver" style="shape=umlActor;verticalLabelPosition=bottom;verticalAlign=top;html=1;outlineConnect=0;" parent="1" vertex="1">
          <mxGeometry x="390" y="651" width="30" height="60" as="geometry" />
        </mxCell>
        <mxCell id="VB7Ufas00Dgr7_cL7uJZ-5" value="Receiver" style="shape=umlActor;verticalLabelPosition=bottom;verticalAlign=top;html=1;outlineConnect=0;" parent="1" vertex="1">
          <mxGeometry x="809" y="274" width="30" height="60" as="geometry" />
        </mxCell>
        <mxCell id="VB7Ufas00Dgr7_cL7uJZ-6" value="Receiver" style="shape=umlActor;verticalLabelPosition=bottom;verticalAlign=top;html=1;outlineConnect=0;" parent="1" vertex="1">
          <mxGeometry x="836" y="478" width="30" height="60" as="geometry" />
        </mxCell>
        <mxCell id="VB7Ufas00Dgr7_cL7uJZ-7" value="" style="whiteSpace=wrap;html=1;aspect=fixed;" parent="1" vertex="1">
          <mxGeometry x="190" y="130" width="498" height="498" as="geometry" />
        </mxCell>
        <mxCell id="VB7Ufas00Dgr7_cL7uJZ-14" value="API Gateway" style="rounded=0;whiteSpace=wrap;html=1;" parent="1" vertex="1">
          <mxGeometry x="250" y="170" width="280" height="30" as="geometry" />
        </mxCell>
        <mxCell id="VB7Ufas00Dgr7_cL7uJZ-17" value="LB" style="shape=cube;whiteSpace=wrap;html=1;boundedLbl=1;backgroundOutline=1;darkOpacity=0.05;darkOpacity2=0.1;" parent="1" vertex="1">
          <mxGeometry x="230" y="230" width="60" height="40" as="geometry" />
        </mxCell>
        <mxCell id="VB7Ufas00Dgr7_cL7uJZ-18" value="LB" style="shape=cube;whiteSpace=wrap;html=1;boundedLbl=1;backgroundOutline=1;darkOpacity=0.05;darkOpacity2=0.1;" parent="1" vertex="1">
          <mxGeometry x="320" y="230" width="60" height="40" as="geometry" />
        </mxCell>
        <mxCell id="VB7Ufas00Dgr7_cL7uJZ-20" value="LB" style="shape=cube;whiteSpace=wrap;html=1;boundedLbl=1;backgroundOutline=1;darkOpacity=0.05;darkOpacity2=0.1;" parent="1" vertex="1">
          <mxGeometry x="510" y="230" width="60" height="40" as="geometry" />
        </mxCell>
        <mxCell id="VB7Ufas00Dgr7_cL7uJZ-24" value="LB" style="shape=cube;whiteSpace=wrap;html=1;boundedLbl=1;backgroundOutline=1;darkOpacity=0.05;darkOpacity2=0.1;" parent="1" vertex="1">
          <mxGeometry x="369" y="520" width="60" height="40" as="geometry" />
        </mxCell>
        <mxCell id="VB7Ufas00Dgr7_cL7uJZ-35" value="" style="curved=1;endArrow=classic;html=1;rounded=0;exitX=1;exitY=0.3333333333333333;exitDx=0;exitDy=0;exitPerimeter=0;entryX=0.051;entryY=0.127;entryDx=0;entryDy=0;entryPerimeter=0;" parent="1" source="VB7Ufas00Dgr7_cL7uJZ-1" target="VB7Ufas00Dgr7_cL7uJZ-14" edge="1">
          <mxGeometry width="50" height="50" relative="1" as="geometry">
            <mxPoint x="110" y="160" as="sourcePoint" />
            <mxPoint x="160" y="110" as="targetPoint" />
            <Array as="points">
              <mxPoint x="160" y="160" />
              <mxPoint x="170" y="90" />
              <mxPoint x="110" y="110" />
            </Array>
          </mxGeometry>
        </mxCell>
        <mxCell id="VB7Ufas00Dgr7_cL7uJZ-39" value="" style="curved=1;endArrow=classic;html=1;rounded=0;exitX=1;exitY=0.3333333333333333;exitDx=0;exitDy=0;exitPerimeter=0;entryX=0.146;entryY=0.146;entryDx=0;entryDy=0;entryPerimeter=0;" parent="1" source="VB7Ufas00Dgr7_cL7uJZ-2" target="VB7Ufas00Dgr7_cL7uJZ-7" edge="1">
          <mxGeometry width="50" height="50" relative="1" as="geometry">
            <mxPoint x="120" y="320" as="sourcePoint" />
            <mxPoint x="170" y="270" as="targetPoint" />
            <Array as="points">
              <mxPoint x="170" y="320" />
              <mxPoint x="120" y="270" />
            </Array>
          </mxGeometry>
        </mxCell>
        <mxCell id="VB7Ufas00Dgr7_cL7uJZ-40" value="" style="curved=1;endArrow=classic;html=1;rounded=0;exitX=1;exitY=0.3333333333333333;exitDx=0;exitDy=0;exitPerimeter=0;entryX=0.411;entryY=0;entryDx=0;entryDy=0;entryPerimeter=0;" parent="1" source="VB7Ufas00Dgr7_cL7uJZ-3" target="VB7Ufas00Dgr7_cL7uJZ-14" edge="1">
          <mxGeometry width="50" height="50" relative="1" as="geometry">
            <mxPoint x="365" y="100" as="sourcePoint" />
            <mxPoint x="415" y="50" as="targetPoint" />
            <Array as="points">
              <mxPoint x="415" y="100" />
              <mxPoint x="365" y="50" />
            </Array>
          </mxGeometry>
        </mxCell>
        <mxCell id="VB7Ufas00Dgr7_cL7uJZ-60" value="Msg" style="shape=callout;whiteSpace=wrap;html=1;perimeter=calloutPerimeter;" parent="1" vertex="1">
          <mxGeometry x="75" y="228" width="50" height="60" as="geometry" />
        </mxCell>
        <mxCell id="VB7Ufas00Dgr7_cL7uJZ-61" value="Msg" style="shape=callout;whiteSpace=wrap;html=1;perimeter=calloutPerimeter;" parent="1" vertex="1">
          <mxGeometry x="10" y="40" width="50" height="60" as="geometry" />
        </mxCell>
        <mxCell id="VB7Ufas00Dgr7_cL7uJZ-62" value="Msg" style="shape=callout;whiteSpace=wrap;html=1;perimeter=calloutPerimeter;" parent="1" vertex="1">
          <mxGeometry x="245" y="10" width="50" height="60" as="geometry" />
        </mxCell>
        <mxCell id="VB7Ufas00Dgr7_cL7uJZ-63" value="Msg" style="shape=callout;whiteSpace=wrap;html=1;perimeter=calloutPerimeter;" parent="1" vertex="1">
          <mxGeometry x="834" y="247" width="50" height="60" as="geometry" />
        </mxCell>
        <mxCell id="VB7Ufas00Dgr7_cL7uJZ-64" value="Msg" style="shape=callout;whiteSpace=wrap;html=1;perimeter=calloutPerimeter;" parent="1" vertex="1">
          <mxGeometry x="854" y="437" width="50" height="60" as="geometry" />
        </mxCell>
        <mxCell id="VB7Ufas00Dgr7_cL7uJZ-65" value="Msg" style="shape=callout;whiteSpace=wrap;html=1;perimeter=calloutPerimeter;" parent="1" vertex="1">
          <mxGeometry x="429" y="651" width="50" height="60" as="geometry" />
        </mxCell>
        <mxCell id="VB7Ufas00Dgr7_cL7uJZ-21" value="API Gateway" style="rounded=0;whiteSpace=wrap;html=1;" parent="1" vertex="1">
          <mxGeometry x="283" y="585" width="280" height="30" as="geometry" />
        </mxCell>
        <mxCell id="hc9nnFskXBQ2Hnd-4gEW-7" value="" style="endArrow=classic;startArrow=classic;html=1;rounded=0;entryX=0;entryY=0;entryDx=40;entryDy=40;entryPerimeter=0;" parent="1" target="VB7Ufas00Dgr7_cL7uJZ-17" edge="1">
          <mxGeometry width="50" height="50" relative="1" as="geometry">
            <mxPoint x="254" y="302" as="sourcePoint" />
            <mxPoint x="304" y="252" as="targetPoint" />
          </mxGeometry>
        </mxCell>
        <mxCell id="hc9nnFskXBQ2Hnd-4gEW-8" value="" style="endArrow=classic;startArrow=classic;html=1;rounded=0;entryX=0;entryY=0;entryDx=40;entryDy=40;entryPerimeter=0;exitX=0.5;exitY=0;exitDx=0;exitDy=0;exitPerimeter=0;" parent="1" target="VB7Ufas00Dgr7_cL7uJZ-18" edge="1">
          <mxGeometry width="50" height="50" relative="1" as="geometry">
            <mxPoint x="352" y="296" as="sourcePoint" />
            <mxPoint x="280" y="280" as="targetPoint" />
            <Array as="points">
              <mxPoint x="355" y="289" />
            </Array>
          </mxGeometry>
        </mxCell>
        <mxCell id="hc9nnFskXBQ2Hnd-4gEW-10" value="" style="endArrow=classic;startArrow=classic;html=1;rounded=0;entryX=0;entryY=0;entryDx=40;entryDy=40;entryPerimeter=0;exitX=0.5;exitY=0;exitDx=0;exitDy=0;exitPerimeter=0;" parent="1" target="VB7Ufas00Dgr7_cL7uJZ-19" edge="1">
          <mxGeometry width="50" height="50" relative="1" as="geometry">
            <mxPoint x="445.9999999999998" y="295" as="sourcePoint" />
            <mxPoint x="280" y="280" as="targetPoint" />
          </mxGeometry>
        </mxCell>
        <mxCell id="hc9nnFskXBQ2Hnd-4gEW-11" value="" style="endArrow=classic;startArrow=classic;html=1;rounded=0;entryX=0;entryY=0;entryDx=40;entryDy=40;entryPerimeter=0;exitX=0.5;exitY=0;exitDx=0;exitDy=0;exitPerimeter=0;" parent="1" target="VB7Ufas00Dgr7_cL7uJZ-20" edge="1">
          <mxGeometry width="50" height="50" relative="1" as="geometry">
            <mxPoint x="573" y="294" as="sourcePoint" />
            <mxPoint x="290" y="290" as="targetPoint" />
            <Array as="points" />
          </mxGeometry>
        </mxCell>
        <mxCell id="hc9nnFskXBQ2Hnd-4gEW-12" value="" style="endArrow=classic;startArrow=classic;html=1;rounded=0;entryX=0;entryY=0;entryDx=40;entryDy=40;entryPerimeter=0;" parent="1" edge="1">
          <mxGeometry width="50" height="50" relative="1" as="geometry">
            <mxPoint x="269" y="232" as="sourcePoint" />
            <mxPoint x="285" y="200" as="targetPoint" />
          </mxGeometry>
        </mxCell>
        <mxCell id="hc9nnFskXBQ2Hnd-4gEW-13" value="" style="endArrow=classic;startArrow=classic;html=1;rounded=0;entryX=0;entryY=0;entryDx=40;entryDy=40;entryPerimeter=0;" parent="1" edge="1">
          <mxGeometry width="50" height="50" relative="1" as="geometry">
            <mxPoint x="342" y="230" as="sourcePoint" />
            <mxPoint x="358" y="198" as="targetPoint" />
          </mxGeometry>
        </mxCell>
        <mxCell id="hc9nnFskXBQ2Hnd-4gEW-14" value="" style="endArrow=classic;startArrow=classic;html=1;rounded=0;entryX=0;entryY=0;entryDx=40;entryDy=40;entryPerimeter=0;" parent="1" edge="1">
          <mxGeometry width="50" height="50" relative="1" as="geometry">
            <mxPoint x="424" y="232" as="sourcePoint" />
            <mxPoint x="440" y="200" as="targetPoint" />
          </mxGeometry>
        </mxCell>
        <mxCell id="hc9nnFskXBQ2Hnd-4gEW-19" value="" style="endArrow=classic;startArrow=classic;html=1;rounded=0;entryX=0.959;entryY=1.133;entryDx=0;entryDy=0;entryPerimeter=0;" parent="1" source="VB7Ufas00Dgr7_cL7uJZ-20" target="VB7Ufas00Dgr7_cL7uJZ-14" edge="1">
          <mxGeometry width="50" height="50" relative="1" as="geometry">
            <mxPoint x="434" y="242" as="sourcePoint" />
            <mxPoint x="450" y="210" as="targetPoint" />
          </mxGeometry>
        </mxCell>
        <mxCell id="hc9nnFskXBQ2Hnd-4gEW-20" value="" style="endArrow=classic;startArrow=classic;html=1;rounded=0;entryX=0;entryY=0;entryDx=40;entryDy=40;entryPerimeter=0;" parent="1" target="VB7Ufas00Dgr7_cL7uJZ-19" edge="1">
          <mxGeometry width="50" height="50" relative="1" as="geometry">
            <mxPoint x="434" y="242" as="sourcePoint" />
            <mxPoint x="450" y="210" as="targetPoint" />
          </mxGeometry>
        </mxCell>
        <mxCell id="VB7Ufas00Dgr7_cL7uJZ-19" value="LB" style="shape=cube;whiteSpace=wrap;html=1;boundedLbl=1;backgroundOutline=1;darkOpacity=0.05;darkOpacity2=0.1;" parent="1" vertex="1">
          <mxGeometry x="402" y="228" width="60" height="40" as="geometry" />
        </mxCell>
        <mxCell id="hc9nnFskXBQ2Hnd-4gEW-23" value="" style="endArrow=classic;startArrow=classic;html=1;rounded=0;entryX=0;entryY=0;entryDx=40;entryDy=40;entryPerimeter=0;" parent="1" edge="1" source="VB7Ufas00Dgr7_cL7uJZ-23">
          <mxGeometry width="50" height="50" relative="1" as="geometry">
            <mxPoint x="300" y="585" as="sourcePoint" />
            <mxPoint x="316" y="553" as="targetPoint" />
          </mxGeometry>
        </mxCell>
        <mxCell id="hc9nnFskXBQ2Hnd-4gEW-24" value="" style="endArrow=classic;startArrow=classic;html=1;rounded=0;entryX=0;entryY=0;entryDx=40;entryDy=40;entryPerimeter=0;" parent="1" edge="1">
          <mxGeometry width="50" height="50" relative="1" as="geometry">
            <mxPoint x="380" y="587" as="sourcePoint" />
            <mxPoint x="396" y="555" as="targetPoint" />
          </mxGeometry>
        </mxCell>
        <mxCell id="hc9nnFskXBQ2Hnd-4gEW-25" value="" style="endArrow=classic;startArrow=classic;html=1;rounded=0;entryX=0;entryY=0;entryDx=40;entryDy=40;entryPerimeter=0;" parent="1" edge="1" source="VB7Ufas00Dgr7_cL7uJZ-25">
          <mxGeometry width="50" height="50" relative="1" as="geometry">
            <mxPoint x="480.5" y="574" as="sourcePoint" />
            <mxPoint x="496.5" y="542" as="targetPoint" />
          </mxGeometry>
        </mxCell>
        <mxCell id="hc9nnFskXBQ2Hnd-4gEW-33" value="" style="endArrow=classic;startArrow=classic;html=1;rounded=0;entryX=0.5;entryY=1;entryDx=0;entryDy=0;exitX=0.147;exitY=0;exitDx=0;exitDy=0;exitPerimeter=0;" parent="1" edge="1" target="hc9nnFskXBQ2Hnd-4gEW-64" source="VB7Ufas00Dgr7_cL7uJZ-23">
          <mxGeometry width="50" height="50" relative="1" as="geometry">
            <mxPoint x="242" y="501" as="sourcePoint" />
            <mxPoint x="258" y="469" as="targetPoint" />
          </mxGeometry>
        </mxCell>
        <mxCell id="hc9nnFskXBQ2Hnd-4gEW-34" value="" style="endArrow=classic;startArrow=classic;html=1;rounded=0;" parent="1" source="VB7Ufas00Dgr7_cL7uJZ-24" edge="1">
          <mxGeometry width="50" height="50" relative="1" as="geometry">
            <mxPoint x="252" y="511" as="sourcePoint" />
            <mxPoint x="380" y="491" as="targetPoint" />
          </mxGeometry>
        </mxCell>
        <mxCell id="hc9nnFskXBQ2Hnd-4gEW-37" value="" style="endArrow=classic;startArrow=classic;html=1;rounded=0;entryX=0.67;entryY=1.028;entryDx=0;entryDy=0;entryPerimeter=0;exitX=0;exitY=0;exitDx=20;exitDy=0;exitPerimeter=0;" parent="1" source="VB7Ufas00Dgr7_cL7uJZ-25" edge="1">
          <mxGeometry width="50" height="50" relative="1" as="geometry">
            <mxPoint x="456" y="305" as="sourcePoint" />
            <mxPoint x="474.2000000000003" y="479.7359999999999" as="targetPoint" />
          </mxGeometry>
        </mxCell>
        <mxCell id="hc9nnFskXBQ2Hnd-4gEW-38" value="" style="endArrow=classic;startArrow=classic;html=1;rounded=0;exitX=0;exitY=0;exitDx=20;exitDy=0;exitPerimeter=0;" parent="1" source="VB7Ufas00Dgr7_cL7uJZ-26" edge="1">
          <mxGeometry width="50" height="50" relative="1" as="geometry">
            <mxPoint x="466" y="315" as="sourcePoint" />
            <mxPoint x="561" y="485" as="targetPoint" />
          </mxGeometry>
        </mxCell>
        <mxCell id="hc9nnFskXBQ2Hnd-4gEW-39" value="" style="endArrow=classic;html=1;rounded=0;exitX=0.5;exitY=1;exitDx=0;exitDy=0;exitPerimeter=0;entryX=0.152;entryY=-0.017;entryDx=0;entryDy=0;entryPerimeter=0;" parent="1" target="8tg6E38Ede1OyMRSEZ2F-6" edge="1">
          <mxGeometry width="50" height="50" relative="1" as="geometry">
            <mxPoint x="260" y="355" as="sourcePoint" />
            <mxPoint x="312" y="362" as="targetPoint" />
          </mxGeometry>
        </mxCell>
        <mxCell id="hc9nnFskXBQ2Hnd-4gEW-40" value="" style="endArrow=classic;html=1;rounded=0;entryX=0.355;entryY=0.046;entryDx=0;entryDy=0;entryPerimeter=0;" parent="1" target="8tg6E38Ede1OyMRSEZ2F-6" edge="1">
          <mxGeometry width="50" height="50" relative="1" as="geometry">
            <mxPoint x="361" y="358" as="sourcePoint" />
            <mxPoint x="374" y="394" as="targetPoint" />
          </mxGeometry>
        </mxCell>
        <mxCell id="hc9nnFskXBQ2Hnd-4gEW-41" value="" style="endArrow=classic;html=1;rounded=0;exitX=0.5;exitY=1;exitDx=0;exitDy=0;exitPerimeter=0;entryX=0.618;entryY=0.061;entryDx=0;entryDy=0;entryPerimeter=0;" parent="1" target="8tg6E38Ede1OyMRSEZ2F-6" edge="1">
          <mxGeometry width="50" height="50" relative="1" as="geometry">
            <mxPoint x="445.9999999999998" y="357" as="sourcePoint" />
            <mxPoint x="470" y="391" as="targetPoint" />
          </mxGeometry>
        </mxCell>
        <mxCell id="hc9nnFskXBQ2Hnd-4gEW-44" value="" style="endArrow=classic;html=1;rounded=0;exitX=0.5;exitY=1;exitDx=0;exitDy=0;exitPerimeter=0;" parent="1" edge="1">
          <mxGeometry width="50" height="50" relative="1" as="geometry">
            <mxPoint x="573" y="354" as="sourcePoint" />
            <mxPoint x="543" y="370" as="targetPoint" />
          </mxGeometry>
        </mxCell>
        <mxCell id="hc9nnFskXBQ2Hnd-4gEW-45" value="" style="endArrow=classic;html=1;rounded=0;exitX=0.309;exitY=0.355;exitDx=0;exitDy=0;exitPerimeter=0;entryX=0.855;entryY=1;entryDx=0;entryDy=-4.35;entryPerimeter=0;" parent="1" target="8tg6E38Ede1OyMRSEZ2F-6" edge="1">
          <mxGeometry width="50" height="50" relative="1" as="geometry">
            <mxPoint x="548.5400000000004" y="439.29999999999995" as="sourcePoint" />
            <mxPoint x="521.3" y="401.65" as="targetPoint" />
          </mxGeometry>
        </mxCell>
        <mxCell id="hc9nnFskXBQ2Hnd-4gEW-47" value="" style="endArrow=classic;html=1;rounded=0;exitX=0.513;exitY=0.315;exitDx=0;exitDy=0;exitPerimeter=0;entryX=0.321;entryY=1.007;entryDx=0;entryDy=0;entryPerimeter=0;" parent="1" edge="1">
          <mxGeometry width="50" height="50" relative="1" as="geometry">
            <mxPoint x="464.7800000000002" y="435.53" as="sourcePoint" />
            <mxPoint x="489.26" y="406.36400000000003" as="targetPoint" />
          </mxGeometry>
        </mxCell>
        <mxCell id="hc9nnFskXBQ2Hnd-4gEW-48" value="" style="endArrow=classic;html=1;rounded=0;exitX=0.424;exitY=0.448;exitDx=0;exitDy=0;exitPerimeter=0;entryX=0.292;entryY=1.068;entryDx=0;entryDy=0;entryPerimeter=0;" parent="1" target="8tg6E38Ede1OyMRSEZ2F-6" edge="1">
          <mxGeometry width="50" height="50" relative="1" as="geometry">
            <mxPoint x="358.44000000000005" y="443.9839999999999" as="sourcePoint" />
            <mxPoint x="325.5" y="402.60799999999995" as="targetPoint" />
          </mxGeometry>
        </mxCell>
        <mxCell id="hc9nnFskXBQ2Hnd-4gEW-49" value="" style="endArrow=classic;html=1;rounded=0;exitX=0.728;exitY=0.333;exitDx=0;exitDy=0;exitPerimeter=0;entryX=0.301;entryY=1.002;entryDx=0;entryDy=0;entryPerimeter=0;" parent="1" edge="1">
          <mxGeometry width="50" height="50" relative="1" as="geometry">
            <mxPoint x="257.68000000000006" y="439.3140000000001" as="sourcePoint" />
            <mxPoint x="300.05999999999995" y="410.096" as="targetPoint" />
          </mxGeometry>
        </mxCell>
        <mxCell id="hc9nnFskXBQ2Hnd-4gEW-51" value="" style="endArrow=classic;html=1;rounded=0;exitX=0.452;exitY=0.973;exitDx=0;exitDy=0;exitPerimeter=0;" parent="1" source="VB7Ufas00Dgr7_cL7uJZ-21" edge="1">
          <mxGeometry width="50" height="50" relative="1" as="geometry">
            <mxPoint x="383" y="463" as="sourcePoint" />
            <mxPoint x="423" y="648" as="targetPoint" />
            <Array as="points">
              <mxPoint x="436" y="648" />
            </Array>
          </mxGeometry>
        </mxCell>
        <mxCell id="hc9nnFskXBQ2Hnd-4gEW-52" value="" style="curved=1;endArrow=classic;html=1;rounded=0;exitX=1;exitY=0.5;exitDx=0;exitDy=0;entryX=0.5;entryY=0;entryDx=0;entryDy=0;entryPerimeter=0;" parent="1" source="VB7Ufas00Dgr7_cL7uJZ-21" target="VB7Ufas00Dgr7_cL7uJZ-6" edge="1">
          <mxGeometry width="50" height="50" relative="1" as="geometry">
            <mxPoint x="681" y="503" as="sourcePoint" />
            <mxPoint x="731" y="453" as="targetPoint" />
            <Array as="points">
              <mxPoint x="731" y="503" />
              <mxPoint x="711" y="666" />
              <mxPoint x="681" y="453" />
            </Array>
          </mxGeometry>
        </mxCell>
        <mxCell id="hc9nnFskXBQ2Hnd-4gEW-54" value="" style="curved=1;endArrow=classic;html=1;rounded=0;entryX=0;entryY=0.3333333333333333;entryDx=0;entryDy=0;entryPerimeter=0;exitX=1;exitY=0;exitDx=0;exitDy=0;" parent="1" edge="1" target="VB7Ufas00Dgr7_cL7uJZ-5" source="VB7Ufas00Dgr7_cL7uJZ-21">
          <mxGeometry width="50" height="50" relative="1" as="geometry">
            <mxPoint x="562" y="565" as="sourcePoint" />
            <mxPoint x="746" y="317" as="targetPoint" />
            <Array as="points">
              <mxPoint x="645" y="556" />
              <mxPoint x="699" y="509" />
              <mxPoint x="746" y="367" />
              <mxPoint x="696" y="317" />
            </Array>
          </mxGeometry>
        </mxCell>
        <mxCell id="hc9nnFskXBQ2Hnd-4gEW-55" value="App Server" style="shape=process;whiteSpace=wrap;html=1;backgroundOutline=1;" parent="1" vertex="1">
          <mxGeometry x="230.5" y="297" width="59" height="54" as="geometry" />
        </mxCell>
        <mxCell id="hc9nnFskXBQ2Hnd-4gEW-56" value="App Server" style="shape=process;whiteSpace=wrap;html=1;backgroundOutline=1;" parent="1" vertex="1">
          <mxGeometry x="331" y="300" width="59" height="54" as="geometry" />
        </mxCell>
        <mxCell id="hc9nnFskXBQ2Hnd-4gEW-57" value="App Server" style="shape=process;whiteSpace=wrap;html=1;backgroundOutline=1;" parent="1" vertex="1">
          <mxGeometry x="421.5" y="300" width="59" height="54" as="geometry" />
        </mxCell>
        <mxCell id="hc9nnFskXBQ2Hnd-4gEW-59" value="App Server" style="shape=process;whiteSpace=wrap;html=1;backgroundOutline=1;" parent="1" vertex="1">
          <mxGeometry x="530" y="294" width="59" height="54" as="geometry" />
        </mxCell>
        <mxCell id="hc9nnFskXBQ2Hnd-4gEW-64" value="App Server" style="shape=process;whiteSpace=wrap;html=1;backgroundOutline=1;" parent="1" vertex="1">
          <mxGeometry x="240.5" y="437" width="59" height="54" as="geometry" />
        </mxCell>
        <mxCell id="hc9nnFskXBQ2Hnd-4gEW-66" value="App&lt;br&gt;Server" style="shape=process;whiteSpace=wrap;html=1;backgroundOutline=1;" parent="1" vertex="1">
          <mxGeometry x="343" y="437" width="59" height="54" as="geometry" />
        </mxCell>
        <mxCell id="hc9nnFskXBQ2Hnd-4gEW-67" value="App Server" style="shape=process;whiteSpace=wrap;html=1;backgroundOutline=1;" parent="1" vertex="1">
          <mxGeometry x="429" y="434" width="59" height="54" as="geometry" />
        </mxCell>
        <mxCell id="hc9nnFskXBQ2Hnd-4gEW-68" value="App Server" style="shape=process;whiteSpace=wrap;html=1;backgroundOutline=1;" parent="1" vertex="1">
          <mxGeometry x="528" y="437" width="59" height="54" as="geometry" />
        </mxCell>
        <mxCell id="8tg6E38Ede1OyMRSEZ2F-2" value="" style="endArrow=classic;startArrow=classic;html=1;rounded=0;entryX=0;entryY=0;entryDx=40;entryDy=40;entryPerimeter=0;exitX=0.664;exitY=0.067;exitDx=0;exitDy=0;exitPerimeter=0;" edge="1" parent="1" source="VB7Ufas00Dgr7_cL7uJZ-21" target="VB7Ufas00Dgr7_cL7uJZ-25">
          <mxGeometry width="50" height="50" relative="1" as="geometry">
            <mxPoint x="480.5" y="574" as="sourcePoint" />
            <mxPoint x="496.5" y="542" as="targetPoint" />
          </mxGeometry>
        </mxCell>
        <mxCell id="VB7Ufas00Dgr7_cL7uJZ-25" value="LB" style="shape=cube;whiteSpace=wrap;html=1;boundedLbl=1;backgroundOutline=1;darkOpacity=0.05;darkOpacity2=0.1;" parent="1" vertex="1">
          <mxGeometry x="453" y="523" width="60" height="40" as="geometry" />
        </mxCell>
        <mxCell id="8tg6E38Ede1OyMRSEZ2F-3" value="" style="endArrow=classic;startArrow=classic;html=1;rounded=0;entryX=0;entryY=0;entryDx=40;entryDy=40;entryPerimeter=0;" edge="1" parent="1" target="VB7Ufas00Dgr7_cL7uJZ-23">
          <mxGeometry width="50" height="50" relative="1" as="geometry">
            <mxPoint x="300" y="585" as="sourcePoint" />
            <mxPoint x="316" y="553" as="targetPoint" />
          </mxGeometry>
        </mxCell>
        <mxCell id="VB7Ufas00Dgr7_cL7uJZ-23" value="LB" style="shape=cube;whiteSpace=wrap;html=1;boundedLbl=1;backgroundOutline=1;darkOpacity=0.05;darkOpacity2=0.1;" parent="1" vertex="1">
          <mxGeometry x="277" y="520" width="60" height="40" as="geometry" />
        </mxCell>
        <mxCell id="8tg6E38Ede1OyMRSEZ2F-4" value="" style="endArrow=classic;startArrow=classic;html=1;rounded=0;entryX=0;entryY=0;entryDx=40;entryDy=40;entryPerimeter=0;exitX=0.889;exitY=0;exitDx=0;exitDy=0;exitPerimeter=0;" edge="1" parent="1" source="VB7Ufas00Dgr7_cL7uJZ-21" target="VB7Ufas00Dgr7_cL7uJZ-26">
          <mxGeometry width="50" height="50" relative="1" as="geometry">
            <mxPoint x="532" y="585" as="sourcePoint" />
            <mxPoint x="557" y="538" as="targetPoint" />
          </mxGeometry>
        </mxCell>
        <mxCell id="VB7Ufas00Dgr7_cL7uJZ-26" value="LB" style="shape=cube;whiteSpace=wrap;html=1;boundedLbl=1;backgroundOutline=1;darkOpacity=0.05;darkOpacity2=0.1;size=15;" parent="1" vertex="1">
          <mxGeometry x="534" y="520" width="60" height="40" as="geometry" />
        </mxCell>
        <mxCell id="8tg6E38Ede1OyMRSEZ2F-6" value="Distributed Event Streaming Platform" style="rounded=0;whiteSpace=wrap;html=1;" vertex="1" parent="1">
          <mxGeometry x="266" y="371.65" width="315.3" height="38.35" as="geometry" />
        </mxCell>
        <mxCell id="8tg6E38Ede1OyMRSEZ2F-7" value="" style="endArrow=classic;html=1;rounded=0;exitX=0;exitY=0.5;exitDx=0;exitDy=0;" edge="1" parent="1" source="8tg6E38Ede1OyMRSEZ2F-6">
          <mxGeometry width="50" height="50" relative="1" as="geometry">
            <mxPoint x="417" y="625" as="sourcePoint" />
            <mxPoint x="113" y="391" as="targetPoint" />
          </mxGeometry>
        </mxCell>
        <mxCell id="8tg6E38Ede1OyMRSEZ2F-8" value="" style="endArrow=classic;html=1;rounded=0;" edge="1" parent="1">
          <mxGeometry width="50" height="50" relative="1" as="geometry">
            <mxPoint x="118" y="393" as="sourcePoint" />
            <mxPoint x="118" y="745" as="targetPoint" />
          </mxGeometry>
        </mxCell>
        <mxCell id="8tg6E38Ede1OyMRSEZ2F-22" value="" style="shape=table;startSize=0;container=1;collapsible=0;childLayout=tableLayout;fontSize=16;" vertex="1" parent="1">
          <mxGeometry x="-11" y="744" width="480" height="114.3" as="geometry" />
        </mxCell>
        <mxCell id="8tg6E38Ede1OyMRSEZ2F-23" value="" style="shape=tableRow;horizontal=0;startSize=0;swimlaneHead=0;swimlaneBody=0;strokeColor=inherit;top=0;left=0;bottom=0;right=0;collapsible=0;dropTarget=0;fillColor=none;points=[[0,0.5],[1,0.5]];portConstraint=eastwest;fontSize=16;" vertex="1" parent="8tg6E38Ede1OyMRSEZ2F-22">
          <mxGeometry width="480" height="32" as="geometry" />
        </mxCell>
        <mxCell id="8tg6E38Ede1OyMRSEZ2F-24" value="" style="shape=partialRectangle;html=1;whiteSpace=wrap;connectable=0;strokeColor=inherit;overflow=hidden;fillColor=none;top=0;left=0;bottom=0;right=0;pointerEvents=1;fontSize=16;" vertex="1" parent="8tg6E38Ede1OyMRSEZ2F-23">
          <mxGeometry width="373" height="32" as="geometry">
            <mxRectangle width="373" height="32" as="alternateBounds" />
          </mxGeometry>
        </mxCell>
        <mxCell id="8tg6E38Ede1OyMRSEZ2F-25" value="L" style="shape=partialRectangle;html=1;whiteSpace=wrap;connectable=0;strokeColor=inherit;overflow=hidden;fillColor=none;top=0;left=0;bottom=0;right=0;pointerEvents=1;fontSize=16;" vertex="1" parent="8tg6E38Ede1OyMRSEZ2F-23">
          <mxGeometry x="373" width="32" height="32" as="geometry">
            <mxRectangle width="32" height="32" as="alternateBounds" />
          </mxGeometry>
        </mxCell>
        <mxCell id="8tg6E38Ede1OyMRSEZ2F-26" value="FAST" style="shape=partialRectangle;html=1;whiteSpace=wrap;connectable=0;strokeColor=inherit;overflow=hidden;fillColor=none;top=0;left=0;bottom=0;right=0;pointerEvents=1;fontSize=16;" vertex="1" parent="8tg6E38Ede1OyMRSEZ2F-23">
          <mxGeometry x="405" width="75" height="32" as="geometry">
            <mxRectangle width="75" height="32" as="alternateBounds" />
          </mxGeometry>
        </mxCell>
        <mxCell id="8tg6E38Ede1OyMRSEZ2F-27" value="" style="shape=tableRow;horizontal=0;startSize=0;swimlaneHead=0;swimlaneBody=0;strokeColor=inherit;top=0;left=0;bottom=0;right=0;collapsible=0;dropTarget=0;fillColor=none;points=[[0,0.5],[1,0.5]];portConstraint=eastwest;fontSize=16;" vertex="1" parent="8tg6E38Ede1OyMRSEZ2F-22">
          <mxGeometry y="32" width="480" height="40" as="geometry" />
        </mxCell>
        <mxCell id="8tg6E38Ede1OyMRSEZ2F-28" value="..." style="shape=partialRectangle;html=1;whiteSpace=wrap;connectable=0;strokeColor=inherit;overflow=hidden;fillColor=none;top=0;left=0;bottom=0;right=0;pointerEvents=1;fontSize=16;" vertex="1" parent="8tg6E38Ede1OyMRSEZ2F-27">
          <mxGeometry width="373" height="40" as="geometry">
            <mxRectangle width="373" height="40" as="alternateBounds" />
          </mxGeometry>
        </mxCell>
        <mxCell id="8tg6E38Ede1OyMRSEZ2F-29" value="L" style="shape=partialRectangle;html=1;whiteSpace=wrap;connectable=0;strokeColor=inherit;overflow=hidden;fillColor=none;top=0;left=0;bottom=0;right=0;pointerEvents=1;fontSize=16;" vertex="1" parent="8tg6E38Ede1OyMRSEZ2F-27">
          <mxGeometry x="373" width="32" height="40" as="geometry">
            <mxRectangle width="32" height="40" as="alternateBounds" />
          </mxGeometry>
        </mxCell>
        <mxCell id="8tg6E38Ede1OyMRSEZ2F-30" value="MEDIUM" style="shape=partialRectangle;html=1;whiteSpace=wrap;connectable=0;strokeColor=inherit;overflow=hidden;fillColor=none;top=0;left=0;bottom=0;right=0;pointerEvents=1;fontSize=16;" vertex="1" parent="8tg6E38Ede1OyMRSEZ2F-27">
          <mxGeometry x="405" width="75" height="40" as="geometry">
            <mxRectangle width="75" height="40" as="alternateBounds" />
          </mxGeometry>
        </mxCell>
        <mxCell id="8tg6E38Ede1OyMRSEZ2F-31" value="" style="shape=tableRow;horizontal=0;startSize=0;swimlaneHead=0;swimlaneBody=0;strokeColor=inherit;top=0;left=0;bottom=0;right=0;collapsible=0;dropTarget=0;fillColor=none;points=[[0,0.5],[1,0.5]];portConstraint=eastwest;fontSize=16;" vertex="1" parent="8tg6E38Ede1OyMRSEZ2F-22">
          <mxGeometry y="72" width="480" height="42" as="geometry" />
        </mxCell>
        <mxCell id="8tg6E38Ede1OyMRSEZ2F-32" value="........." style="shape=partialRectangle;html=1;whiteSpace=wrap;connectable=0;strokeColor=inherit;overflow=hidden;fillColor=none;top=0;left=0;bottom=0;right=0;pointerEvents=1;fontSize=16;" vertex="1" parent="8tg6E38Ede1OyMRSEZ2F-31">
          <mxGeometry width="373" height="42" as="geometry">
            <mxRectangle width="373" height="42" as="alternateBounds" />
          </mxGeometry>
        </mxCell>
        <mxCell id="8tg6E38Ede1OyMRSEZ2F-33" value="L" style="shape=partialRectangle;html=1;whiteSpace=wrap;connectable=0;strokeColor=inherit;overflow=hidden;fillColor=none;top=0;left=0;bottom=0;right=0;pointerEvents=1;fontSize=16;" vertex="1" parent="8tg6E38Ede1OyMRSEZ2F-31">
          <mxGeometry x="373" width="32" height="42" as="geometry">
            <mxRectangle width="32" height="42" as="alternateBounds" />
          </mxGeometry>
        </mxCell>
        <mxCell id="8tg6E38Ede1OyMRSEZ2F-34" value="SLOW" style="shape=partialRectangle;html=1;whiteSpace=wrap;connectable=0;strokeColor=inherit;overflow=hidden;fillColor=none;top=0;left=0;bottom=0;right=0;pointerEvents=1;fontSize=16;" vertex="1" parent="8tg6E38Ede1OyMRSEZ2F-31">
          <mxGeometry x="405" width="75" height="42" as="geometry">
            <mxRectangle width="75" height="42" as="alternateBounds" />
          </mxGeometry>
        </mxCell>
        <mxCell id="8tg6E38Ede1OyMRSEZ2F-37" value="" style="shape=tapeData;whiteSpace=wrap;html=1;perimeter=ellipsePerimeter;" vertex="1" parent="1">
          <mxGeometry x="10" y="754" width="24" height="18" as="geometry" />
        </mxCell>
        <mxCell id="8tg6E38Ede1OyMRSEZ2F-38" value="" style="shape=tapeData;whiteSpace=wrap;html=1;perimeter=ellipsePerimeter;" vertex="1" parent="1">
          <mxGeometry x="63" y="754" width="24" height="18" as="geometry" />
        </mxCell>
        <mxCell id="8tg6E38Ede1OyMRSEZ2F-41" value="" style="shape=tapeData;whiteSpace=wrap;html=1;perimeter=ellipsePerimeter;" vertex="1" parent="1">
          <mxGeometry x="110" y="754" width="24" height="18" as="geometry" />
        </mxCell>
        <mxCell id="8tg6E38Ede1OyMRSEZ2F-42" value="" style="shape=tapeData;whiteSpace=wrap;html=1;perimeter=ellipsePerimeter;" vertex="1" parent="1">
          <mxGeometry x="156" y="754" width="24" height="18" as="geometry" />
        </mxCell>
        <mxCell id="8tg6E38Ede1OyMRSEZ2F-43" value="" style="shape=tapeData;whiteSpace=wrap;html=1;perimeter=ellipsePerimeter;" vertex="1" parent="1">
          <mxGeometry x="201" y="754" width="24" height="18" as="geometry" />
        </mxCell>
        <mxCell id="8tg6E38Ede1OyMRSEZ2F-44" value="" style="shape=tapeData;whiteSpace=wrap;html=1;perimeter=ellipsePerimeter;" vertex="1" parent="1">
          <mxGeometry x="245" y="754" width="24" height="18" as="geometry" />
        </mxCell>
        <mxCell id="8tg6E38Ede1OyMRSEZ2F-45" value="" style="shape=curlyBracket;whiteSpace=wrap;html=1;rounded=1;flipH=1;labelPosition=right;verticalLabelPosition=middle;align=left;verticalAlign=middle;" vertex="1" parent="1">
          <mxGeometry x="508" y="744" width="20" height="120" as="geometry" />
        </mxCell>
        <mxCell id="8tg6E38Ede1OyMRSEZ2F-46" value="&lt;b&gt;Multiple Queues&lt;/b&gt;" style="text;html=1;strokeColor=none;fillColor=none;align=center;verticalAlign=middle;whiteSpace=wrap;rounded=0;" vertex="1" parent="1">
          <mxGeometry x="547" y="777" width="107" height="30" as="geometry" />
        </mxCell>
        <mxCell id="8tg6E38Ede1OyMRSEZ2F-47" value="" style="shape=tapeData;whiteSpace=wrap;html=1;perimeter=ellipsePerimeter;" vertex="1" parent="1">
          <mxGeometry x="283" y="754" width="24" height="18" as="geometry" />
        </mxCell>
        <mxCell id="8tg6E38Ede1OyMRSEZ2F-49" value="" style="shape=tapeData;whiteSpace=wrap;html=1;perimeter=ellipsePerimeter;" vertex="1" parent="1">
          <mxGeometry x="323" y="754" width="24" height="18" as="geometry" />
        </mxCell>
        <mxCell id="8tg6E38Ede1OyMRSEZ2F-50" value="" style="shape=tapeData;whiteSpace=wrap;html=1;perimeter=ellipsePerimeter;" vertex="1" parent="1">
          <mxGeometry x="13" y="789" width="24" height="18" as="geometry" />
        </mxCell>
        <mxCell id="8tg6E38Ede1OyMRSEZ2F-53" value="" style="shape=tapeData;whiteSpace=wrap;html=1;perimeter=ellipsePerimeter;" vertex="1" parent="1">
          <mxGeometry x="104" y="789" width="24" height="18" as="geometry" />
        </mxCell>
        <mxCell id="8tg6E38Ede1OyMRSEZ2F-54" value="" style="shape=tapeData;whiteSpace=wrap;html=1;perimeter=ellipsePerimeter;" vertex="1" parent="1">
          <mxGeometry x="190" y="789" width="24" height="18" as="geometry" />
        </mxCell>
        <mxCell id="8tg6E38Ede1OyMRSEZ2F-55" value="" style="shape=tapeData;whiteSpace=wrap;html=1;perimeter=ellipsePerimeter;" vertex="1" parent="1">
          <mxGeometry x="258" y="792.15" width="24" height="18" as="geometry" />
        </mxCell>
        <mxCell id="8tg6E38Ede1OyMRSEZ2F-59" value="" style="shape=tapeData;whiteSpace=wrap;html=1;perimeter=ellipsePerimeter;" vertex="1" parent="1">
          <mxGeometry x="326" y="789" width="24" height="18" as="geometry" />
        </mxCell>
        <mxCell id="8tg6E38Ede1OyMRSEZ2F-60" value="" style="shape=tapeData;whiteSpace=wrap;html=1;perimeter=ellipsePerimeter;" vertex="1" parent="1">
          <mxGeometry x="41" y="828" width="24" height="18" as="geometry" />
        </mxCell>
        <mxCell id="8tg6E38Ede1OyMRSEZ2F-61" value="" style="shape=tapeData;whiteSpace=wrap;html=1;perimeter=ellipsePerimeter;" vertex="1" parent="1">
          <mxGeometry x="114" y="828" width="24" height="18" as="geometry" />
        </mxCell>
        <mxCell id="8tg6E38Ede1OyMRSEZ2F-62" value="" style="shape=tapeData;whiteSpace=wrap;html=1;perimeter=ellipsePerimeter;" vertex="1" parent="1">
          <mxGeometry x="279" y="828" width="24" height="18" as="geometry" />
        </mxCell>
      </root>
    </mxGraphModel>
  </diagram>
</mxfile>
